<?xml version="1.0" encoding="UTF-8"?>
<svg xmlns="http://www.w3.org/2000/svg" xmlns:xlink="http://www.w3.org/1999/xlink" width="250px" height="63px" viewBox="0 0 251 63" version="1.1">
<g id="surface1">
<path style=" stroke:none;fill-rule:nonzero;fill:rgb(21.176471%,41.176471%,60.392159%);fill-opacity:1;" d="M 8.324219 44.191406 C 7.613281 42.277344 3.15625 29.660156 10.09375 18.304688 C 11.367188 16.222656 15.222656 9.917969 23.160156 7.597656 C 23.859375 7.394531 33.269531 4.824219 41.566406 10.667969 C 44.683594 12.863281 46.542969 15.503906 47.558594 17.230469 C 40.007812 13.167969 32.210938 12.988281 29.253906 16.839844 C 25.8125 21.328125 26.664062 26.6875 31.796875 31.527344 C 31.929688 30.132812 32.1875 27.460938 32.1875 27.460938 L 41.191406 34.171875 L 41.953125 38.101562 C 41.953125 38.101562 47.382812 41.378906 52.421875 43.042969 C 55.09375 38.734375 56.632812 33.648438 56.632812 28.199219 C 56.652344 12.625 44.046875 0 28.492188 0 C 12.9375 0 0.332031 12.625 0.332031 28.203125 C 0.332031 33.617188 1.859375 38.679688 4.5 42.976562 C 6.089844 43.484375 8.324219 44.191406 8.324219 44.191406 Z M 8.324219 44.191406 "/>
<path style=" stroke:none;fill-rule:nonzero;fill:rgb(13.725491%,12.156863%,12.54902%);fill-opacity:1;" d="M 72.980469 7.613281 L 72.980469 11.042969 L 79.574219 11.042969 L 79.574219 14.957031 L 72.980469 14.957031 L 72.980469 21.484375 L 68.917969 21.484375 L 68.917969 3.699219 L 79.699219 3.699219 L 79.699219 7.613281 Z M 72.980469 7.613281 "/>
<path style=" stroke:none;fill-rule:nonzero;fill:rgb(13.725491%,12.156863%,12.54902%);fill-opacity:1;" d="M 93.726562 8.785156 L 93.726562 21.484375 L 89.921875 21.484375 L 89.921875 20.289062 C 89.238281 21.230469 87.96875 21.839844 86.292969 21.839844 C 83.730469 21.839844 81.550781 20.011719 81.550781 16.582031 L 81.550781 8.785156 L 85.355469 8.785156 L 85.355469 16.023438 C 85.355469 17.597656 86.34375 18.332031 87.558594 18.332031 C 88.953125 18.332031 89.914062 17.523438 89.914062 15.71875 L 89.914062 8.785156 Z M 93.726562 8.785156 "/>
<path style=" stroke:none;fill-rule:nonzero;fill:rgb(13.725491%,12.156863%,12.54902%);fill-opacity:1;" d="M 108.433594 13.6875 L 108.433594 21.484375 L 104.628906 21.484375 L 104.628906 14.25 C 104.628906 12.675781 103.644531 11.9375 102.425781 11.9375 C 101.03125 11.9375 100.070312 12.75 100.070312 14.554688 L 100.070312 21.484375 L 96.265625 21.484375 L 96.265625 8.785156 L 100.070312 8.785156 L 100.070312 9.980469 C 100.75 9.042969 102.023438 8.433594 103.699219 8.433594 C 106.261719 8.433594 108.441406 10.261719 108.441406 13.6875 Z M 108.433594 13.6875 "/>
<path style=" stroke:none;fill-rule:nonzero;fill:rgb(13.725491%,12.156863%,12.54902%);fill-opacity:1;" d="M 123.796875 3.699219 L 123.796875 21.480469 L 119.992188 21.480469 L 119.992188 20.285156 C 119.160156 21.246094 117.910156 21.832031 116.214844 21.832031 C 112.890625 21.832031 110.148438 18.914062 110.148438 15.125 C 110.148438 11.339844 112.890625 8.417969 116.214844 8.417969 C 117.910156 8.417969 119.152344 9.003906 119.992188 9.96875 L 119.992188 3.699219 Z M 119.992188 15.132812 C 119.992188 13.230469 118.726562 12.035156 116.972656 12.035156 C 115.222656 12.035156 113.953125 13.230469 113.953125 15.132812 C 113.953125 17.035156 115.222656 18.230469 116.972656 18.230469 C 118.726562 18.230469 119.992188 17.035156 119.992188 15.132812 Z M 119.992188 15.132812 "/>
<path style=" stroke:none;fill-rule:nonzero;fill:rgb(13.725491%,12.156863%,12.54902%);fill-opacity:1;" d="M 139.347656 8.785156 L 139.347656 21.484375 L 135.542969 21.484375 L 135.542969 20.289062 C 134.707031 21.253906 133.460938 21.839844 131.761719 21.839844 C 128.4375 21.839844 125.699219 18.917969 125.699219 15.132812 C 125.699219 11.347656 128.4375 8.425781 131.761719 8.425781 C 133.460938 8.425781 134.703125 9.011719 135.542969 9.976562 L 135.542969 8.78125 L 139.347656 8.78125 Z M 135.542969 15.132812 C 135.542969 13.230469 134.273438 12.035156 132.523438 12.035156 C 130.769531 12.035156 129.503906 13.230469 129.503906 15.132812 C 129.503906 17.035156 130.769531 18.230469 132.523438 18.230469 C 134.273438 18.230469 135.542969 17.035156 135.542969 15.132812 Z M 135.542969 15.132812 "/>
<path style=" stroke:none;fill-rule:nonzero;fill:rgb(13.725491%,12.156863%,12.54902%);fill-opacity:1;" d="M 160.894531 13.6875 L 160.894531 21.484375 L 157.089844 21.484375 L 157.089844 14.015625 C 157.089844 12.75 156.484375 11.933594 155.265625 11.933594 C 154.046875 11.933594 153.285156 12.820312 153.285156 14.320312 L 153.285156 21.484375 L 149.480469 21.484375 L 149.480469 14.015625 C 149.480469 12.75 148.875 11.933594 147.65625 11.933594 C 146.4375 11.933594 145.675781 12.820312 145.675781 14.320312 L 145.675781 21.484375 L 141.871094 21.484375 L 141.871094 8.785156 L 145.675781 8.785156 L 145.675781 9.957031 C 146.261719 9.089844 147.375 8.433594 149.074219 8.433594 C 150.570312 8.433594 151.6875 9.042969 152.398438 10.109375 C 153.109375 9.089844 154.273438 8.433594 156.074219 8.433594 C 158.992188 8.433594 160.894531 10.515625 160.894531 13.6875 Z M 160.894531 13.6875 "/>
<path style=" stroke:none;fill-rule:nonzero;fill:rgb(13.725491%,12.156863%,12.54902%);fill-opacity:1;" d="M 169.699219 18.4375 C 170.738281 18.4375 171.628906 18.027344 172.132812 17.472656 L 175.175781 19.222656 C 173.9375 20.949219 172.0625 21.839844 169.648438 21.839844 C 165.316406 21.839844 162.625 18.917969 162.625 15.132812 C 162.625 11.347656 165.363281 8.425781 169.371094 8.425781 C 173.070312 8.425781 175.8125 11.296875 175.8125 15.132812 C 175.8125 15.664062 175.761719 16.175781 175.660156 16.65625 L 166.65625 16.65625 C 167.136719 17.980469 168.304688 18.4375 169.699219 18.4375 Z M 172.03125 13.808594 C 171.621094 12.335938 170.484375 11.804688 169.339844 11.804688 C 167.898438 11.804688 166.929688 12.515625 166.574219 13.808594 Z M 172.03125 13.808594 "/>
<path style=" stroke:none;fill-rule:nonzero;fill:rgb(13.725491%,12.156863%,12.54902%);fill-opacity:1;" d="M 189.886719 13.6875 L 189.886719 21.484375 L 186.082031 21.484375 L 186.082031 14.25 C 186.082031 12.675781 185.09375 11.9375 183.875 11.9375 C 182.484375 11.9375 181.519531 12.75 181.519531 14.554688 L 181.519531 21.484375 L 177.714844 21.484375 L 177.714844 8.785156 L 181.519531 8.785156 L 181.519531 9.980469 C 182.207031 9.042969 183.476562 8.433594 185.148438 8.433594 C 187.710938 8.433594 189.890625 10.261719 189.890625 13.6875 Z M 189.886719 13.6875 "/>
<path style=" stroke:none;fill-rule:nonzero;fill:rgb(13.725491%,12.156863%,12.54902%);fill-opacity:1;" d="M 197.054688 12.4375 L 197.054688 16.929688 C 197.054688 18.023438 197.992188 18.125 199.667969 18.023438 L 199.667969 21.480469 C 194.695312 21.984375 193.25 20.492188 193.25 16.929688 L 193.25 12.4375 L 191.222656 12.4375 L 191.222656 8.78125 L 193.25 8.78125 L 193.25 6.367188 L 197.054688 5.226562 L 197.054688 8.78125 L 199.667969 8.78125 L 199.667969 12.4375 Z M 197.054688 12.4375 "/>
<path style=" stroke:none;fill-rule:nonzero;fill:rgb(13.725491%,12.156863%,12.54902%);fill-opacity:1;" d="M 214.328125 8.785156 L 214.328125 21.484375 L 210.523438 21.484375 L 210.523438 20.289062 C 209.6875 21.253906 208.441406 21.839844 206.742188 21.839844 C 203.417969 21.839844 200.679688 18.917969 200.679688 15.132812 C 200.679688 11.347656 203.417969 8.425781 206.742188 8.425781 C 208.441406 8.425781 209.683594 9.011719 210.523438 9.976562 L 210.523438 8.78125 L 214.328125 8.78125 Z M 210.523438 15.132812 C 210.523438 13.230469 209.253906 12.035156 207.503906 12.035156 C 205.75 12.035156 204.484375 13.230469 204.484375 15.132812 C 204.484375 17.035156 205.75 18.230469 207.503906 18.230469 C 209.253906 18.230469 210.523438 17.035156 210.523438 15.132812 Z M 210.523438 15.132812 "/>
<path style=" stroke:none;fill-rule:nonzero;fill:rgb(13.725491%,12.156863%,12.54902%);fill-opacity:1;" d="M 216.863281 2.9375 L 220.667969 2.9375 L 220.667969 21.480469 L 216.863281 21.480469 Z M 216.863281 2.9375 "/>
<path style=" stroke:none;fill-rule:nonzero;fill:rgb(13.725491%,12.156863%,12.54902%);fill-opacity:1;" d="M 81.855469 31.332031 C 81.855469 34.710938 79.140625 37.429688 75.640625 37.429688 L 72.980469 37.429688 L 72.980469 43.019531 L 68.917969 43.019531 L 68.917969 25.242188 L 75.640625 25.242188 C 79.140625 25.242188 81.855469 27.960938 81.855469 31.339844 Z M 77.800781 31.332031 C 77.800781 30.039062 76.886719 29.046875 75.644531 29.046875 L 72.984375 29.046875 L 72.984375 33.617188 L 75.644531 33.617188 C 76.886719 33.617188 77.800781 32.632812 77.800781 31.332031 Z M 77.800781 31.332031 "/>
<path style=" stroke:none;fill-rule:nonzero;fill:rgb(13.725491%,12.156863%,12.54902%);fill-opacity:1;" d="M 82.109375 36.667969 C 82.109375 32.882812 85.105469 29.960938 88.832031 29.960938 C 92.558594 29.960938 95.550781 32.882812 95.550781 36.667969 C 95.550781 40.453125 92.558594 43.375 88.832031 43.375 C 85.105469 43.375 82.109375 40.453125 82.109375 36.667969 Z M 91.746094 36.667969 C 91.746094 34.863281 90.480469 33.667969 88.832031 33.667969 C 87.183594 33.667969 85.914062 34.863281 85.914062 36.667969 C 85.914062 38.472656 87.183594 39.667969 88.832031 39.667969 C 90.480469 39.667969 91.746094 38.472656 91.746094 36.667969 Z M 91.746094 36.667969 "/>
<path style=" stroke:none;fill-rule:nonzero;fill:rgb(13.725491%,12.156863%,12.54902%);fill-opacity:1;" d="M 114.953125 30.3125 L 110.894531 43.015625 L 107.34375 43.015625 L 105.316406 36.234375 L 103.289062 43.015625 L 99.742188 43.015625 L 95.679688 30.3125 L 99.742188 30.3125 L 101.566406 37.117188 L 103.546875 30.3125 L 107.09375 30.3125 L 109.074219 37.117188 L 110.898438 30.3125 L 114.960938 30.3125 Z M 114.953125 30.3125 "/>
<path style=" stroke:none;fill-rule:nonzero;fill:rgb(13.725491%,12.156863%,12.54902%);fill-opacity:1;" d="M 122.148438 39.964844 C 123.191406 39.964844 124.078125 39.558594 124.582031 39.003906 L 127.628906 40.753906 C 126.386719 42.476562 124.511719 43.367188 122.101562 43.367188 C 117.765625 43.367188 115.074219 40.449219 115.074219 36.660156 C 115.074219 32.875 117.816406 29.953125 121.820312 29.953125 C 125.519531 29.953125 128.261719 32.824219 128.261719 36.660156 C 128.261719 37.199219 128.210938 37.703125 128.109375 38.183594 L 119.105469 38.183594 C 119.585938 39.507812 120.753906 39.964844 122.148438 39.964844 Z M 124.488281 35.34375 C 124.078125 33.867188 122.941406 33.339844 121.796875 33.339844 C 120.351562 33.339844 119.386719 34.050781 119.03125 35.34375 Z M 124.488281 35.34375 "/>
<path style=" stroke:none;fill-rule:nonzero;fill:rgb(13.725491%,12.156863%,12.54902%);fill-opacity:1;" d="M 137.769531 30.0625 L 137.769531 34.378906 C 136.199219 34.125 133.964844 34.757812 133.964844 37.277344 L 133.964844 43.015625 L 130.160156 43.015625 L 130.160156 30.3125 L 133.964844 30.3125 L 133.964844 32.574219 C 134.46875 30.875 136.167969 30.0625 137.769531 30.0625 Z M 137.769531 30.0625 "/>
<path style=" stroke:none;fill-rule:nonzero;fill:rgb(13.725491%,12.156863%,12.54902%);fill-opacity:1;" d="M 144.617188 38.976562 L 148.117188 36.949219 C 148.75 38.421875 149.839844 39.410156 151.84375 39.410156 C 153.847656 39.410156 154.253906 38.648438 154.253906 37.964844 C 154.253906 36.875 153.238281 36.441406 150.578125 35.703125 C 147.941406 34.964844 145.355469 33.699219 145.355469 30.296875 C 145.355469 26.894531 148.246094 24.886719 151.3125 24.886719 C 154.382812 24.886719 156.511719 26.285156 157.804688 28.898438 L 154.382812 30.90625 C 153.773438 29.636719 152.941406 28.851562 151.3125 28.851562 C 150.046875 28.851562 149.414062 29.484375 149.414062 30.199219 C 149.414062 31.007812 149.847656 31.570312 152.609375 32.40625 C 155.300781 33.214844 158.316406 34.15625 158.316406 37.917969 C 158.316406 41.34375 155.574219 43.378906 151.722656 43.378906 C 147.867188 43.378906 145.609375 41.601562 144.625 38.984375 Z M 144.617188 38.976562 "/>
<path style=" stroke:none;fill-rule:nonzero;fill:rgb(13.725491%,12.156863%,12.54902%);fill-opacity:1;" d="M 159.710938 36.667969 C 159.710938 32.882812 162.703125 29.960938 166.429688 29.960938 C 170.15625 29.960938 173.148438 32.882812 173.148438 36.667969 C 173.148438 40.453125 170.15625 43.375 166.429688 43.375 C 162.703125 43.375 159.710938 40.453125 159.710938 36.667969 Z M 169.34375 36.667969 C 169.34375 34.863281 168.078125 33.667969 166.429688 33.667969 C 164.78125 33.667969 163.515625 34.863281 163.515625 36.667969 C 163.515625 38.472656 164.78125 39.667969 166.429688 39.667969 C 168.078125 39.667969 169.34375 38.472656 169.34375 36.667969 Z M 169.34375 36.667969 "/>
<path style=" stroke:none;fill-rule:nonzero;fill:rgb(13.725491%,12.156863%,12.54902%);fill-opacity:1;" d="M 175.050781 24.472656 L 178.855469 24.472656 L 178.855469 43.015625 L 175.050781 43.015625 Z M 175.050781 24.472656 "/>
<path style=" stroke:none;fill-rule:nonzero;fill:rgb(13.725491%,12.156863%,12.54902%);fill-opacity:1;" d="M 193.386719 30.3125 L 193.386719 43.015625 L 189.582031 43.015625 L 189.582031 41.820312 C 188.894531 42.757812 187.625 43.367188 185.953125 43.367188 C 183.390625 43.367188 181.210938 41.539062 181.210938 38.113281 L 181.210938 30.3125 L 185.015625 30.3125 L 185.015625 37.550781 C 185.015625 39.125 186.007812 39.863281 187.21875 39.863281 C 188.613281 39.863281 189.574219 39.050781 189.574219 37.246094 L 189.574219 30.3125 Z M 193.386719 30.3125 "/>
<path style=" stroke:none;fill-rule:nonzero;fill:rgb(13.725491%,12.156863%,12.54902%);fill-opacity:1;" d="M 200.738281 33.972656 L 200.738281 38.464844 C 200.738281 39.558594 201.675781 39.660156 203.351562 39.558594 L 203.351562 43.015625 C 198.378906 43.519531 196.933594 42.027344 196.933594 38.464844 L 196.933594 33.972656 L 194.90625 33.972656 L 194.90625 30.3125 L 196.933594 30.3125 L 196.933594 27.898438 L 200.738281 26.757812 L 200.738281 30.3125 L 203.351562 30.3125 L 203.351562 33.972656 Z M 200.738281 33.972656 "/>
<path style=" stroke:none;fill-rule:nonzero;fill:rgb(13.725491%,12.156863%,12.54902%);fill-opacity:1;" d="M 204.867188 26.910156 C 204.867188 25.667969 205.90625 24.625 207.148438 24.625 C 208.390625 24.625 209.433594 25.667969 209.433594 26.910156 C 209.433594 28.15625 208.390625 29.199219 207.148438 29.199219 C 205.90625 29.199219 204.867188 28.15625 204.867188 26.910156 Z M 205.25 30.3125 L 209.054688 30.3125 L 209.054688 43.015625 L 205.25 43.015625 Z M 205.25 30.3125 "/>
<path style=" stroke:none;fill-rule:nonzero;fill:rgb(13.725491%,12.156863%,12.54902%);fill-opacity:1;" d="M 210.953125 36.667969 C 210.953125 32.882812 213.949219 29.960938 217.675781 29.960938 C 221.398438 29.960938 224.394531 32.882812 224.394531 36.667969 C 224.394531 40.453125 221.398438 43.375 217.675781 43.375 C 213.949219 43.375 210.953125 40.453125 210.953125 36.667969 Z M 220.589844 36.667969 C 220.589844 34.863281 219.324219 33.667969 217.675781 33.667969 C 216.023438 33.667969 214.757812 34.863281 214.757812 36.667969 C 214.757812 38.472656 216.023438 39.667969 217.675781 39.667969 C 219.324219 39.667969 220.589844 38.472656 220.589844 36.667969 Z M 220.589844 36.667969 "/>
<path style=" stroke:none;fill-rule:nonzero;fill:rgb(13.725491%,12.156863%,12.54902%);fill-opacity:1;" d="M 238.46875 35.214844 L 238.46875 43.015625 L 234.664062 43.015625 L 234.664062 35.777344 C 234.664062 34.203125 233.679688 33.464844 232.460938 33.464844 C 231.066406 33.464844 230.105469 34.277344 230.105469 36.082031 L 230.105469 43.015625 L 226.300781 43.015625 L 226.300781 30.3125 L 230.105469 30.3125 L 230.105469 31.507812 C 230.792969 30.570312 232.058594 29.960938 233.734375 29.960938 C 236.296875 29.960938 238.476562 31.789062 238.476562 35.214844 Z M 238.46875 35.214844 "/>
<path style=" stroke:none;fill-rule:nonzero;fill:rgb(13.725491%,12.156863%,12.54902%);fill-opacity:1;" d="M 250.667969 39.203125 C 250.667969 42.125 248.128906 43.367188 245.390625 43.367188 C 242.851562 43.367188 240.929688 42.40625 239.9375 40.34375 L 243.234375 38.464844 C 243.566406 39.429688 244.277344 39.964844 245.390625 39.964844 C 246.304688 39.964844 246.761719 39.683594 246.761719 39.179688 C 246.761719 37.78125 240.519531 38.519531 240.519531 34.125 C 240.519531 31.355469 242.851562 29.960938 245.496094 29.960938 C 247.546875 29.960938 249.371094 30.875 250.4375 32.679688 L 247.191406 34.429688 C 246.839844 33.769531 246.328125 33.3125 245.496094 33.3125 C 244.835938 33.3125 244.429688 33.570312 244.429688 34.027344 C 244.429688 35.472656 250.667969 34.507812 250.667969 39.210938 Z M 250.667969 39.203125 "/>
<path style=" stroke:none;fill-rule:nonzero;fill:rgb(21.176471%,41.176471%,60.392159%);fill-opacity:1;" d="M 75.183594 54.886719 C 75.183594 56.519531 73.867188 57.835938 72.175781 57.835938 L 70.886719 57.835938 L 70.886719 60.542969 L 68.917969 60.542969 L 68.917969 51.933594 L 72.175781 51.933594 C 73.867188 51.933594 75.183594 53.25 75.183594 54.886719 Z M 73.222656 54.886719 C 73.222656 54.257812 72.777344 53.773438 72.183594 53.773438 L 70.890625 53.773438 L 70.890625 55.988281 L 72.183594 55.988281 C 72.785156 55.988281 73.222656 55.507812 73.222656 54.878906 Z M 73.222656 54.886719 "/>
<path style=" stroke:none;fill-rule:nonzero;fill:rgb(21.176471%,41.176471%,60.392159%);fill-opacity:1;" d="M 75.3125 57.46875 C 75.3125 55.636719 76.761719 54.21875 78.566406 54.21875 C 80.375 54.21875 81.824219 55.636719 81.824219 57.46875 C 81.824219 59.304688 80.375 60.71875 78.566406 60.71875 C 76.761719 60.71875 75.3125 59.304688 75.3125 57.46875 Z M 79.972656 57.46875 C 79.972656 56.597656 79.359375 56.019531 78.5625 56.019531 C 77.765625 56.019531 77.148438 56.597656 77.148438 57.46875 C 77.148438 58.34375 77.765625 58.921875 78.5625 58.921875 C 79.359375 58.921875 79.972656 58.34375 79.972656 57.46875 Z M 79.972656 57.46875 "/>
<path style=" stroke:none;fill-rule:nonzero;fill:rgb(21.176471%,41.176471%,60.392159%);fill-opacity:1;" d="M 91.210938 54.390625 L 89.246094 60.542969 L 87.527344 60.542969 L 86.546875 57.257812 L 85.570312 60.542969 L 83.851562 60.542969 L 81.886719 54.390625 L 83.851562 54.390625 L 84.734375 57.691406 L 85.691406 54.390625 L 87.40625 54.390625 L 88.363281 57.691406 L 89.246094 54.390625 Z M 91.210938 54.390625 "/>
<path style=" stroke:none;fill-rule:nonzero;fill:rgb(21.176471%,41.176471%,60.392159%);fill-opacity:1;" d="M 94.699219 59.066406 C 95.207031 59.066406 95.632812 58.871094 95.882812 58.597656 L 97.355469 59.445312 C 96.75 60.28125 95.84375 60.714844 94.675781 60.714844 C 92.574219 60.714844 91.273438 59.300781 91.273438 57.464844 C 91.273438 55.628906 92.601562 54.214844 94.542969 54.214844 C 96.335938 54.214844 97.660156 55.605469 97.660156 57.464844 C 97.660156 57.71875 97.632812 57.96875 97.585938 58.203125 L 93.226562 58.203125 C 93.457031 58.84375 94.023438 59.0625 94.699219 59.0625 Z M 95.832031 56.828125 C 95.636719 56.117188 95.082031 55.859375 94.53125 55.859375 C 93.828125 55.859375 93.359375 56.203125 93.191406 56.828125 Z M 95.832031 56.828125 "/>
<path style=" stroke:none;fill-rule:nonzero;fill:rgb(21.176471%,41.176471%,60.392159%);fill-opacity:1;" d="M 102.265625 54.269531 L 102.265625 56.359375 C 101.507812 56.238281 100.421875 56.542969 100.421875 57.761719 L 100.421875 60.542969 L 98.578125 60.542969 L 98.578125 54.390625 L 100.421875 54.390625 L 100.421875 55.488281 C 100.664062 54.664062 101.492188 54.269531 102.265625 54.269531 Z M 102.265625 54.269531 "/>
<path style=" stroke:none;fill-rule:nonzero;fill:rgb(21.176471%,41.176471%,60.392159%);fill-opacity:1;" d="M 111.417969 58.648438 L 111.417969 60.542969 L 106.011719 60.542969 L 106.011719 51.933594 L 111.355469 51.933594 L 111.355469 53.832031 L 107.976562 53.832031 L 107.976562 55.257812 L 111.046875 55.257812 L 111.046875 57.128906 L 107.976562 57.128906 L 107.976562 58.652344 L 111.417969 58.652344 Z M 111.417969 58.648438 "/>
<path style=" stroke:none;fill-rule:nonzero;fill:rgb(21.176471%,41.176471%,60.392159%);fill-opacity:1;" d="M 118.515625 54.390625 L 118.515625 63 L 116.671875 63 L 116.671875 59.964844 C 116.261719 60.433594 115.664062 60.714844 114.835938 60.714844 C 113.230469 60.714844 111.902344 59.300781 111.902344 57.464844 C 111.902344 55.628906 113.230469 54.214844 114.835938 54.214844 C 115.660156 54.214844 116.261719 54.496094 116.671875 54.964844 L 116.671875 54.386719 L 118.515625 54.386719 Z M 116.671875 57.46875 C 116.671875 56.550781 116.054688 55.96875 115.210938 55.96875 C 114.363281 55.96875 113.746094 56.550781 113.746094 57.46875 C 113.746094 58.390625 114.363281 58.96875 115.210938 58.96875 C 116.054688 58.96875 116.671875 58.390625 116.671875 57.46875 Z M 116.671875 57.46875 "/>
<path style=" stroke:none;fill-rule:nonzero;fill:rgb(21.176471%,41.176471%,60.392159%);fill-opacity:1;" d="M 125.550781 54.390625 L 125.550781 60.542969 L 123.707031 60.542969 L 123.707031 59.964844 C 123.378906 60.421875 122.761719 60.714844 121.953125 60.714844 C 120.710938 60.714844 119.660156 59.828125 119.660156 58.164062 L 119.660156 54.390625 L 121.503906 54.390625 L 121.503906 57.898438 C 121.503906 58.660156 121.984375 59.019531 122.574219 59.019531 C 123.25 59.019531 123.71875 58.621094 123.71875 57.75 L 123.71875 54.390625 L 125.5625 54.390625 Z M 125.550781 54.390625 "/>
<path style=" stroke:none;fill-rule:nonzero;fill:rgb(21.176471%,41.176471%,60.392159%);fill-opacity:1;" d="M 126.59375 52.746094 C 126.59375 52.140625 127.097656 51.636719 127.699219 51.636719 C 128.304688 51.636719 128.808594 52.140625 128.808594 52.746094 C 128.808594 53.347656 128.304688 53.855469 127.699219 53.855469 C 127.097656 53.855469 126.59375 53.347656 126.59375 52.746094 Z M 126.78125 54.390625 L 128.625 54.390625 L 128.625 60.542969 L 126.78125 60.542969 Z M 126.78125 54.390625 "/>
<path style=" stroke:none;fill-rule:nonzero;fill:rgb(21.176471%,41.176471%,60.392159%);fill-opacity:1;" d="M 136.453125 57.46875 C 136.453125 59.304688 135.128906 60.71875 133.519531 60.71875 C 132.699219 60.71875 132.097656 60.4375 131.6875 59.96875 L 131.6875 63.007812 L 129.84375 63.007812 L 129.84375 54.398438 L 131.6875 54.398438 L 131.6875 54.976562 C 132.097656 54.507812 132.691406 54.226562 133.519531 54.226562 C 135.128906 54.226562 136.453125 55.640625 136.453125 57.476562 Z M 134.617188 57.46875 C 134.617188 56.550781 134 55.96875 133.15625 55.96875 C 132.308594 55.96875 131.695312 56.550781 131.695312 57.46875 C 131.695312 58.390625 132.308594 58.96875 133.15625 58.96875 C 134 58.96875 134.617188 58.390625 134.617188 57.46875 Z M 134.617188 57.46875 "/>
<path style=" stroke:none;fill-rule:nonzero;fill:rgb(21.176471%,41.176471%,60.392159%);fill-opacity:1;" d="M 146.589844 56.769531 L 146.589844 60.542969 L 144.746094 60.542969 L 144.746094 56.925781 C 144.746094 56.3125 144.453125 55.921875 143.863281 55.921875 C 143.273438 55.921875 142.90625 56.355469 142.90625 57.078125 L 142.90625 60.550781 L 141.0625 60.550781 L 141.0625 56.933594 C 141.0625 56.316406 140.769531 55.925781 140.179688 55.925781 C 139.589844 55.925781 139.222656 56.359375 139.222656 57.085938 L 139.222656 60.554688 L 137.378906 60.554688 L 137.378906 54.402344 L 139.222656 54.402344 L 139.222656 54.96875 C 139.503906 54.550781 140.046875 54.234375 140.867188 54.234375 C 141.59375 54.234375 142.132812 54.523438 142.476562 55.042969 C 142.816406 54.550781 143.382812 54.234375 144.257812 54.234375 C 145.671875 54.234375 146.589844 55.238281 146.589844 56.78125 Z M 146.589844 56.769531 "/>
<path style=" stroke:none;fill-rule:nonzero;fill:rgb(21.176471%,41.176471%,60.392159%);fill-opacity:1;" d="M 150.851562 59.066406 C 151.355469 59.066406 151.78125 58.871094 152.03125 58.597656 L 153.503906 59.445312 C 152.902344 60.28125 151.996094 60.714844 150.828125 60.714844 C 148.726562 60.714844 147.425781 59.300781 147.425781 57.464844 C 147.425781 55.628906 148.75 54.214844 150.691406 54.214844 C 152.488281 54.214844 153.808594 55.605469 153.808594 57.464844 C 153.808594 57.71875 153.785156 57.96875 153.738281 58.203125 L 149.378906 58.203125 C 149.609375 58.84375 150.175781 59.0625 150.851562 59.0625 Z M 151.976562 56.828125 C 151.78125 56.117188 151.230469 55.859375 150.675781 55.859375 C 149.976562 55.859375 149.507812 56.203125 149.335938 56.828125 Z M 151.976562 56.828125 "/>
<path style=" stroke:none;fill-rule:nonzero;fill:rgb(21.176471%,41.176471%,60.392159%);fill-opacity:1;" d="M 160.628906 56.769531 L 160.628906 60.542969 L 158.785156 60.542969 L 158.785156 57.039062 C 158.785156 56.273438 158.304688 55.914062 157.710938 55.914062 C 157.035156 55.914062 156.566406 56.3125 156.566406 57.183594 L 156.566406 60.542969 L 154.722656 60.542969 L 154.722656 54.390625 L 156.566406 54.390625 L 156.566406 54.96875 C 156.898438 54.511719 157.511719 54.21875 158.320312 54.21875 C 159.5625 54.21875 160.617188 55.105469 160.617188 56.769531 Z M 160.628906 56.769531 "/>
<path style=" stroke:none;fill-rule:nonzero;fill:rgb(21.176471%,41.176471%,60.392159%);fill-opacity:1;" d="M 164.105469 56.164062 L 164.105469 58.34375 C 164.105469 58.871094 164.5625 58.921875 165.371094 58.871094 L 165.371094 60.542969 C 162.964844 60.785156 162.265625 60.0625 162.265625 58.34375 L 162.265625 56.164062 L 161.285156 56.164062 L 161.285156 54.390625 L 162.265625 54.390625 L 162.265625 53.21875 L 164.109375 52.664062 L 164.109375 54.386719 L 165.375 54.386719 L 165.375 56.160156 L 164.109375 56.160156 Z M 164.105469 56.164062 "/>
<path style=" stroke:none;fill-rule:nonzero;fill:rgb(21.176471%,41.176471%,60.392159%);fill-opacity:1;" d="M 168.988281 58.585938 L 170.679688 57.605469 C 170.984375 58.316406 171.511719 58.800781 172.488281 58.800781 C 173.460938 58.800781 173.65625 58.425781 173.65625 58.097656 C 173.65625 57.566406 173.164062 57.359375 171.871094 57 C 170.59375 56.640625 169.339844 56.03125 169.339844 54.378906 C 169.339844 52.726562 170.738281 51.757812 172.226562 51.757812 C 173.710938 51.757812 174.746094 52.433594 175.367188 53.703125 L 173.710938 54.671875 C 173.417969 54.054688 173.011719 53.675781 172.226562 53.675781 C 171.609375 53.675781 171.304688 53.984375 171.304688 54.332031 C 171.304688 54.726562 171.511719 54.996094 172.851562 55.402344 C 174.15625 55.800781 175.617188 56.25 175.617188 58.074219 C 175.617188 59.730469 174.289062 60.71875 172.417969 60.71875 C 170.550781 60.71875 169.460938 59.859375 168.980469 58.59375 Z M 168.988281 58.585938 "/>
<path style=" stroke:none;fill-rule:nonzero;fill:rgb(21.176471%,41.176471%,60.392159%);fill-opacity:1;" d="M 182.902344 54.390625 L 182.902344 60.542969 L 181.058594 60.542969 L 181.058594 59.964844 C 180.648438 60.433594 180.054688 60.714844 179.226562 60.714844 C 177.617188 60.714844 176.292969 59.300781 176.292969 57.464844 C 176.292969 55.628906 177.617188 54.214844 179.226562 54.214844 C 180.046875 54.214844 180.648438 54.496094 181.058594 54.964844 L 181.058594 54.386719 L 182.902344 54.386719 Z M 181.0625 57.46875 C 181.0625 56.550781 180.449219 55.96875 179.601562 55.96875 C 178.757812 55.96875 178.140625 56.550781 178.140625 57.46875 C 178.140625 58.390625 178.757812 58.96875 179.601562 58.96875 C 180.449219 58.96875 181.0625 58.390625 181.0625 57.46875 Z M 181.0625 57.46875 "/>
<path style=" stroke:none;fill-rule:nonzero;fill:rgb(21.176471%,41.176471%,60.392159%);fill-opacity:1;" d="M 184.132812 51.5625 L 185.976562 51.5625 L 185.976562 60.542969 L 184.132812 60.542969 Z M 184.132812 51.5625 "/>
<path style=" stroke:none;fill-rule:nonzero;fill:rgb(21.176471%,41.176471%,60.392159%);fill-opacity:1;" d="M 190.324219 59.066406 C 190.828125 59.066406 191.253906 58.871094 191.503906 58.597656 L 192.976562 59.445312 C 192.375 60.28125 191.46875 60.714844 190.300781 60.714844 C 188.199219 60.714844 186.894531 59.300781 186.894531 57.464844 C 186.894531 55.628906 188.222656 54.214844 190.164062 54.214844 C 191.960938 54.214844 193.28125 55.605469 193.28125 57.464844 C 193.28125 57.71875 193.257812 57.96875 193.207031 58.203125 L 188.851562 58.203125 C 189.082031 58.84375 189.648438 59.0625 190.324219 59.0625 Z M 191.449219 56.828125 C 191.253906 56.117188 190.699219 55.859375 190.148438 55.859375 C 189.445312 55.859375 188.976562 56.203125 188.808594 56.828125 Z M 191.449219 56.828125 "/>
<path style=" stroke:none;fill-rule:nonzero;fill:rgb(21.176471%,41.176471%,60.392159%);fill-opacity:1;" d="M 198.722656 58.695312 C 198.722656 60.109375 197.496094 60.714844 196.167969 60.714844 C 194.9375 60.714844 194.007812 60.246094 193.523438 59.25 L 195.121094 58.34375 C 195.277344 58.8125 195.625 59.066406 196.160156 59.066406 C 196.605469 59.066406 196.824219 58.933594 196.824219 58.683594 C 196.824219 58.007812 193.804688 58.367188 193.804688 56.238281 C 193.804688 54.898438 194.9375 54.21875 196.210938 54.21875 C 197.203125 54.21875 198.089844 54.664062 198.601562 55.539062 L 197.03125 56.386719 C 196.859375 56.066406 196.613281 55.84375 196.210938 55.84375 C 195.894531 55.84375 195.691406 55.964844 195.691406 56.183594 C 195.691406 56.882812 198.710938 56.414062 198.710938 58.695312 Z M 198.722656 58.695312 "/>
<path style=" stroke:none;fill-rule:nonzero;fill:rgb(21.176471%,41.176471%,60.392159%);fill-opacity:1;" d="M 208.398438 60.859375 L 207.636719 60.035156 C 207.035156 60.457031 206.296875 60.714844 205.414062 60.714844 C 203.644531 60.714844 202.347656 59.746094 202.347656 58.117188 C 202.347656 57.132812 202.839844 56.207031 203.722656 55.640625 C 203.503906 55.257812 203.363281 54.828125 203.363281 54.273438 C 203.363281 52.824219 204.484375 51.75 206.125 51.75 C 207.367188 51.75 208.421875 52.367188 208.953125 53.636719 L 207.269531 54.605469 C 207.050781 54.023438 206.703125 53.671875 206.152344 53.671875 C 205.65625 53.671875 205.328125 53.976562 205.328125 54.398438 C 205.328125 54.878906 205.621094 55.195312 206.003906 55.617188 L 207.585938 57.371094 C 207.757812 56.976562 207.890625 56.523438 207.996094 56.019531 L 209.640625 56.953125 C 209.480469 57.554688 209.21875 58.195312 208.855469 58.761719 L 209.9375 59.96875 L 208.402344 60.855469 Z M 206.4375 58.71875 L 204.867188 57.023438 L 204.792969 56.953125 C 204.476562 57.207031 204.335938 57.566406 204.335938 57.910156 C 204.335938 58.488281 204.707031 58.914062 205.578125 58.914062 C 205.894531 58.914062 206.179688 58.855469 206.4375 58.71875 Z M 206.4375 58.71875 "/>
<path style=" stroke:none;fill-rule:nonzero;fill:rgb(21.176471%,41.176471%,60.392159%);fill-opacity:1;" d="M 216.640625 57.714844 L 215.707031 57.714844 L 215.707031 60.542969 L 213.742188 60.542969 L 213.742188 51.933594 L 217.179688 51.933594 C 218.8125 51.933594 220.128906 53.25 220.128906 54.886719 C 220.128906 55.941406 219.488281 56.902344 218.546875 57.382812 L 220.378906 60.542969 L 218.265625 60.542969 L 216.644531 57.714844 Z M 215.707031 55.988281 L 217.179688 55.988281 C 217.722656 55.988281 218.160156 55.507812 218.160156 54.878906 C 218.160156 54.25 217.71875 53.769531 217.179688 53.769531 L 215.707031 53.769531 Z M 215.707031 55.988281 "/>
<path style=" stroke:none;fill-rule:nonzero;fill:rgb(21.176471%,41.176471%,60.392159%);fill-opacity:1;" d="M 223.921875 59.066406 C 224.425781 59.066406 224.851562 58.871094 225.101562 58.597656 L 226.574219 59.445312 C 225.972656 60.28125 225.066406 60.714844 223.894531 60.714844 C 221.796875 60.714844 220.492188 59.300781 220.492188 57.464844 C 220.492188 55.628906 221.820312 54.214844 223.761719 54.214844 C 225.558594 54.214844 226.878906 55.605469 226.878906 57.464844 C 226.878906 57.71875 226.855469 57.96875 226.804688 58.203125 L 222.449219 58.203125 C 222.679688 58.84375 223.246094 59.0625 223.921875 59.0625 Z M 225.054688 56.828125 C 224.859375 56.117188 224.304688 55.859375 223.75 55.859375 C 223.050781 55.859375 222.582031 56.203125 222.410156 56.828125 Z M 225.054688 56.828125 "/>
<path style=" stroke:none;fill-rule:nonzero;fill:rgb(21.176471%,41.176471%,60.392159%);fill-opacity:1;" d="M 233.695312 56.769531 L 233.695312 60.542969 L 231.851562 60.542969 L 231.851562 57.039062 C 231.851562 56.273438 231.371094 55.914062 230.78125 55.914062 C 230.105469 55.914062 229.636719 56.3125 229.636719 57.183594 L 229.636719 60.542969 L 227.792969 60.542969 L 227.792969 54.390625 L 229.636719 54.390625 L 229.636719 54.96875 C 229.964844 54.511719 230.582031 54.21875 231.390625 54.21875 C 232.632812 54.21875 233.683594 55.105469 233.683594 56.769531 Z M 233.695312 56.769531 "/>
<path style=" stroke:none;fill-rule:nonzero;fill:rgb(21.176471%,41.176471%,60.392159%);fill-opacity:1;" d="M 237.171875 56.164062 L 237.171875 58.34375 C 237.171875 58.871094 237.628906 58.921875 238.4375 58.871094 L 238.4375 60.542969 C 236.035156 60.785156 235.335938 60.0625 235.335938 58.34375 L 235.335938 56.164062 L 234.355469 56.164062 L 234.355469 54.390625 L 235.335938 54.390625 L 235.335938 53.21875 L 237.179688 52.664062 L 237.179688 54.386719 L 238.445312 54.386719 L 238.445312 56.160156 L 237.179688 56.160156 Z M 237.171875 56.164062 "/>
<path style=" stroke:none;fill-rule:nonzero;fill:rgb(21.176471%,41.176471%,60.392159%);fill-opacity:1;" d="M 245.539062 54.390625 L 245.539062 60.542969 L 243.691406 60.542969 L 243.691406 59.964844 C 243.285156 60.433594 242.6875 60.714844 241.859375 60.714844 C 240.253906 60.714844 238.925781 59.300781 238.925781 57.464844 C 238.925781 55.628906 240.253906 54.214844 241.859375 54.214844 C 242.683594 54.214844 243.285156 54.496094 243.691406 54.964844 L 243.691406 54.386719 L 245.539062 54.386719 Z M 243.691406 57.46875 C 243.691406 56.550781 243.078125 55.96875 242.230469 55.96875 C 241.386719 55.96875 240.769531 56.550781 240.769531 57.46875 C 240.769531 58.390625 241.386719 58.96875 242.230469 58.96875 C 243.078125 58.96875 243.691406 58.390625 243.691406 57.46875 Z M 243.691406 57.46875 "/>
<path style=" stroke:none;fill-rule:nonzero;fill:rgb(21.176471%,41.176471%,60.392159%);fill-opacity:1;" d="M 246.765625 51.5625 L 248.613281 51.5625 L 248.613281 60.542969 L 246.765625 60.542969 Z M 246.765625 51.5625 "/>
</g>
</svg>
